# xmcd CD database file
#
# Track frame offsets:
#	150
#	16640
#	38905
#	60395
#	83475
#	105717
#	122142
#	140155
#	165070
#	181057
#	187960
#	205547
#	221990
#	236555
#
# Disc length: 3398 seconds
#
# Revision: 1
# Processed by: cddbd v1.5PL3 Copyright (c) Steve Scherf et al.
# Submitted via: CDex 1.51
#
DISCID=ad0d440e
DTITLE=筋肉少女帯 - 筋少の大水銀 disk1
DYEAR=1993
DGENRE=Rock/Pop
TTITLE0=元祖 高木ブー伝説
TTITLE1=星の夜のボート
TTITLE2=サボテンとバントライン
TTITLE3=釈迦(ライブ・バージョン)
TTITLE4=踊るダメ人間
TTITLE5=風車男ルリヲ(ライブ・バージョン)
TTITLE6=氷の世界
TTITLE7=戦え! 何を!? 人生を!
TTITLE8=バトル野郎〜100万人の兄貴〜
TTITLE9=じーさんはいい塩梅
TTITLE10=暴いておやりよドルバッキー
TTITLE11=死んでゆく牛はモー
TTITLE12=君よ! 俺で変われ!
TTITLE13=ゴーゴー蟲娘
EXTD=YEAR: 1993
EXTT0=
EXTT1=
EXTT2=
EXTT3=
EXTT4=
EXTT5=
EXTT6=
EXTT7=
EXTT8=
EXTT9=
EXTT10=
EXTT11=
EXTT12=
EXTT13=
PLAYORDER=
